<mxfile host="app.diagrams.net" modified="2023-09-22T22:29:33.846Z" agent="Mozilla/5.0 (X11; Linux x86_64) AppleWebKit/537.36 (KHTML, like Gecko) Chrome/117.0.0.0 Safari/537.36" etag="P_T37ckZzLK8feXWZtZl" version="21.8.1" type="github">
  <diagram name="Page-1" id="A1xUWsfATmWIDgPdKrNk">
    <mxGraphModel dx="1364" dy="771" grid="1" gridSize="10" guides="1" tooltips="1" connect="1" arrows="1" fold="1" page="1" pageScale="1" pageWidth="850" pageHeight="1100" math="0" shadow="0">
      <root>
        <mxCell id="0" />
        <mxCell id="1" parent="0" />
        <mxCell id="n1u33KZPMlFf5NF0xIdu-1" value="&lt;span style=&quot;font-size: 20px;&quot;&gt;User basic flow&lt;br&gt;&lt;/span&gt;" style="text;html=1;strokeColor=none;fillColor=none;align=center;verticalAlign=middle;whiteSpace=wrap;rounded=0;" vertex="1" parent="1">
          <mxGeometry x="325" y="140" width="200" height="30" as="geometry" />
        </mxCell>
        <mxCell id="n1u33KZPMlFf5NF0xIdu-4" style="edgeStyle=orthogonalEdgeStyle;rounded=0;orthogonalLoop=1;jettySize=auto;html=1;entryX=0.5;entryY=0;entryDx=0;entryDy=0;" edge="1" parent="1" source="n1u33KZPMlFf5NF0xIdu-2" target="n1u33KZPMlFf5NF0xIdu-5">
          <mxGeometry relative="1" as="geometry">
            <mxPoint x="190" y="350" as="targetPoint" />
          </mxGeometry>
        </mxCell>
        <mxCell id="n1u33KZPMlFf5NF0xIdu-2" value="&lt;font style=&quot;font-size: 16px;&quot;&gt;Start&lt;/font&gt;" style="ellipse;whiteSpace=wrap;html=1;fillColor=#d5e8d4;strokeColor=#82b366;" vertex="1" parent="1">
          <mxGeometry x="150" y="200" width="80" height="80" as="geometry" />
        </mxCell>
        <mxCell id="n1u33KZPMlFf5NF0xIdu-18" style="edgeStyle=orthogonalEdgeStyle;rounded=0;orthogonalLoop=1;jettySize=auto;html=1;" edge="1" parent="1" source="n1u33KZPMlFf5NF0xIdu-5" target="n1u33KZPMlFf5NF0xIdu-17">
          <mxGeometry relative="1" as="geometry" />
        </mxCell>
        <mxCell id="n1u33KZPMlFf5NF0xIdu-5" value="&lt;font style=&quot;font-size: 16px;&quot;&gt;User joins the website&lt;/font&gt;" style="rounded=1;whiteSpace=wrap;html=1;" vertex="1" parent="1">
          <mxGeometry x="90" y="320" width="220" height="70" as="geometry" />
        </mxCell>
        <mxCell id="n1u33KZPMlFf5NF0xIdu-22" style="edgeStyle=orthogonalEdgeStyle;rounded=0;orthogonalLoop=1;jettySize=auto;html=1;" edge="1" parent="1" source="n1u33KZPMlFf5NF0xIdu-7" target="n1u33KZPMlFf5NF0xIdu-21">
          <mxGeometry relative="1" as="geometry" />
        </mxCell>
        <mxCell id="n1u33KZPMlFf5NF0xIdu-7" value="&lt;font style=&quot;font-size: 16px;&quot;&gt;User search for a room&lt;/font&gt;" style="rounded=1;whiteSpace=wrap;html=1;" vertex="1" parent="1">
          <mxGeometry x="540" y="535" width="220" height="70" as="geometry" />
        </mxCell>
        <mxCell id="n1u33KZPMlFf5NF0xIdu-12" style="edgeStyle=orthogonalEdgeStyle;rounded=0;orthogonalLoop=1;jettySize=auto;html=1;" edge="1" parent="1" source="n1u33KZPMlFf5NF0xIdu-8" target="n1u33KZPMlFf5NF0xIdu-11">
          <mxGeometry relative="1" as="geometry" />
        </mxCell>
        <mxCell id="n1u33KZPMlFf5NF0xIdu-14" value="&lt;font style=&quot;font-size: 17px;&quot;&gt;Yes&lt;/font&gt;" style="edgeLabel;html=1;align=center;verticalAlign=middle;resizable=0;points=[];" vertex="1" connectable="0" parent="n1u33KZPMlFf5NF0xIdu-12">
          <mxGeometry x="-0.0667" y="-2" relative="1" as="geometry">
            <mxPoint as="offset" />
          </mxGeometry>
        </mxCell>
        <mxCell id="n1u33KZPMlFf5NF0xIdu-13" style="edgeStyle=orthogonalEdgeStyle;rounded=0;orthogonalLoop=1;jettySize=auto;html=1;entryX=0;entryY=0.75;entryDx=0;entryDy=0;" edge="1" parent="1" source="n1u33KZPMlFf5NF0xIdu-8" target="n1u33KZPMlFf5NF0xIdu-7">
          <mxGeometry relative="1" as="geometry" />
        </mxCell>
        <mxCell id="n1u33KZPMlFf5NF0xIdu-15" value="&lt;font style=&quot;font-size: 16px;&quot;&gt;NO&lt;/font&gt;" style="edgeLabel;html=1;align=center;verticalAlign=middle;resizable=0;points=[];" vertex="1" connectable="0" parent="n1u33KZPMlFf5NF0xIdu-13">
          <mxGeometry x="-0.1877" relative="1" as="geometry">
            <mxPoint as="offset" />
          </mxGeometry>
        </mxCell>
        <mxCell id="n1u33KZPMlFf5NF0xIdu-8" value="&lt;font style=&quot;font-size: 14px;&quot;&gt;Has invite&lt;/font&gt;" style="rhombus;whiteSpace=wrap;html=1;" vertex="1" parent="1">
          <mxGeometry x="380" y="430" width="95" height="80" as="geometry" />
        </mxCell>
        <mxCell id="n1u33KZPMlFf5NF0xIdu-11" value="&lt;font style=&quot;font-size: 16px;&quot;&gt;Join the room with the invite&lt;/font&gt;" style="rounded=1;whiteSpace=wrap;html=1;" vertex="1" parent="1">
          <mxGeometry x="540" y="360" width="220" height="70" as="geometry" />
        </mxCell>
        <mxCell id="n1u33KZPMlFf5NF0xIdu-19" style="edgeStyle=orthogonalEdgeStyle;rounded=0;orthogonalLoop=1;jettySize=auto;html=1;entryX=0;entryY=0.5;entryDx=0;entryDy=0;" edge="1" parent="1" source="n1u33KZPMlFf5NF0xIdu-17" target="n1u33KZPMlFf5NF0xIdu-8">
          <mxGeometry relative="1" as="geometry" />
        </mxCell>
        <mxCell id="n1u33KZPMlFf5NF0xIdu-17" value="&lt;font style=&quot;font-size: 16px;&quot;&gt;User set his nickname&lt;/font&gt;" style="rounded=1;whiteSpace=wrap;html=1;" vertex="1" parent="1">
          <mxGeometry x="100" y="435" width="220" height="70" as="geometry" />
        </mxCell>
        <mxCell id="n1u33KZPMlFf5NF0xIdu-24" style="edgeStyle=orthogonalEdgeStyle;rounded=0;orthogonalLoop=1;jettySize=auto;html=1;entryX=0.5;entryY=0;entryDx=0;entryDy=0;" edge="1" parent="1" source="n1u33KZPMlFf5NF0xIdu-21" target="n1u33KZPMlFf5NF0xIdu-23">
          <mxGeometry relative="1" as="geometry" />
        </mxCell>
        <mxCell id="n1u33KZPMlFf5NF0xIdu-21" value="&lt;span style=&quot;font-size: 16px;&quot;&gt;User select and enter the room&lt;/span&gt;" style="rounded=1;whiteSpace=wrap;html=1;" vertex="1" parent="1">
          <mxGeometry x="540" y="660" width="220" height="70" as="geometry" />
        </mxCell>
        <mxCell id="n1u33KZPMlFf5NF0xIdu-23" value="&lt;font style=&quot;font-size: 16px;&quot;&gt;End&lt;/font&gt;" style="ellipse;whiteSpace=wrap;html=1;fillColor=#f8cecc;strokeColor=#b85450;" vertex="1" parent="1">
          <mxGeometry x="610" y="790" width="80" height="80" as="geometry" />
        </mxCell>
      </root>
    </mxGraphModel>
  </diagram>
</mxfile>
